<?xml version="1.0" encoding="UTF-8"?>
<svg width="270px" height="270px" viewBox="0 0 270 270" version="1.1" xmlns="http://www.w3.org/2000/svg" xmlns:xlink="http://www.w3.org/1999/xlink">
    <title>picto-faster-deployments</title>
    <defs>
        <linearGradient x1="50%" y1="0%" x2="50%" y2="100%" id="linearGradient-1">
            <stop stop-color="#728FFF" offset="0%"></stop>
            <stop stop-color="#728FFF" stop-opacity="0.312827797" offset="100%"></stop>
        </linearGradient>
        <linearGradient x1="50%" y1="0%" x2="50%" y2="100%" id="linearGradient-2">
            <stop stop-color="#728FFF" offset="0%"></stop>
            <stop stop-color="#728FFF" stop-opacity="0.312827797" offset="100%"></stop>
        </linearGradient>
    </defs>
    <g id="Page-1" stroke="none" stroke-width="1" fill="none" fill-rule="evenodd">
        <g id="illustrations-copy" transform="translate(-270.000000, -152.000000)">
            <g id="picto-faster-deployments" transform="translate(270.000000, 152.000000)">
                <rect id="Rectangle" x="0" y="0" width="270" height="270"></rect>
                <path d="M130,241 C68.2273946,241 31.2898643,190.282448 16.2841225,130.026226 C1.27838064,69.7700039 62.8131477,39 124.585753,39 C186.358358,39 246,50.2011872 246,112.051831 C246,173.902474 191.772605,241 130,241 Z" id="Fill-1" fill="#E5E9F7"></path>
                <line x1="43" y1="127.5" x2="121" y2="127.5" id="Path-5" stroke="#4F74FF" stroke-width="1.5" stroke-linecap="round" stroke-linejoin="round"></line>
                <path d="M44,124 L84.6464293,124 C94.8390245,124 104.334377,118.824861 109.858426,110.259005 L133.408584,73.740995 C138.932633,65.1751392 148.427985,60 158.62058,60 L174,60 L174,60" id="Path-23" stroke="#4F74FF" stroke-width="1.5" stroke-linecap="round" stroke-linejoin="round"></path>
                <path d="M44,201 L83.8148026,201 C97.8846796,201 110.73699,193.019946 116.976969,180.40947 L130.742477,152.59053 C136.982456,139.980054 149.834766,132 163.904643,132 L169,132 L169,132" id="Path-23-Copy" stroke="#4F74FF" stroke-width="1.5" stroke-linecap="round" stroke-linejoin="round" transform="translate(106.500000, 166.500000) scale(1, -1) translate(-106.500000, -166.500000) "></path>
                <path d="M68,114 C68,114 75.9769384,103.08027 79.6233556,101.841326 C93.8020594,97.0238239 104,83.6368544 104,67.8762179 C104,48.0623299 87.882251,32 68,32 C48.117749,32 32,48.0623299 32,67.8762179 C32,83.1394966 41.5644642,96.176556 55.0464222,101.359842 C59.0659468,102.905192 68,114 68,114 Z" id="Oval-Copy" fill="#E5E9F7"></path>
                <path d="M73,116 C73,116 80.9769384,105.08027 84.6233556,103.841326 C98.8020594,99.0238239 109,85.6368544 109,69.8762179 C109,50.0623299 92.882251,34 73,34 C53.117749,34 37,50.0623299 37,69.8762179 C37,85.1394966 46.5644642,98.176556 60.0464222,103.359842 C64.0659468,104.905192 73,116 73,116 Z" id="Oval" fill="#FFFFFF"></path>
                <g id="Group-3" transform="translate(52.000000, 49.000000)">
                    <path d="M36.2727273,21 C36.2727273,12.5651056 29.4348944,5.72727273 21,5.72727273 L21,21 L36.2727273,21 Z" id="Path" fill="#E5E9F7"></path>
                    <circle id="Oval" stroke="#4F74FF" stroke-width="3" cx="21" cy="21" r="21"></circle>
                    <polyline id="Path-24" stroke="#4F74FF" stroke-width="3" stroke-linecap="round" stroke-linejoin="round" points="21 8.65454964 21 21 33.3899886 21"></polyline>
                </g>
                <g id="Group-45" transform="translate(9.000000, 113.000000)" fill="#809AFF">
                    <polygon id="Fill-18" points="12.974 28.9995 7.81597009e-14 22.8945 7.81597009e-14 7.6305 12.974 13.7365"></polygon>
                    <polygon id="Fill-20" points="27.474 22.894 14.5 28.999 14.5 13.736 27.474 7.631"></polygon>
                    <polygon id="Fill-22" points="0.0004 6.105 13.7374 12.21 27.4744 6.105 13.7374 2.13162821e-14"></polygon>
                </g>
                <path d="M206.994593,32.3699304 C199.83775,33.9603321 194.744731,40.3538465 194.749697,47.7384952 L194.749697,47.7384952 C194.75069,49.0158021 194.908605,50.2861292 195.218477,51.5225544 L195.218477,51.5225544 C188.400308,52.5715215 183.528768,58.7307134 184.036282,65.662671 L184.036282,65.662671 C184.54181,72.5946286 190.255565,77.9690894 197.152195,78 L197.152195,78 L241.587989,78 C249.548313,78 256,71.4968027 256,63.4739991 L256,63.4739991 C256,55.4521926 249.548313,48.9489953 241.587989,48.9489953 L241.587989,48.9489953 C241.012938,48.9499924 240.438881,48.9848915 239.867804,49.0536926 L239.867804,49.0536926 C238.316459,43.9644073 233.659446,40.4874602 228.37673,40.4764919 L228.37673,40.4764919 C227.062755,40.4744976 225.757719,40.6958576 224.515253,41.1266122 L224.515253,41.1266122 C221.922064,35.4769471 216.334442,32 210.358488,32 L210.358488,32 C209.245135,32 208.118871,32.1206512 206.994593,32.3699304" id="Fill-3" fill="url(#linearGradient-1)"></path>
                <path d="M155.9936,100.370928 C148.83775,101.961329 143.744731,108.353846 143.748704,115.738495 L143.748704,115.738495 C143.75069,117.014805 143.907612,118.286129 144.218477,119.523551 L144.218477,119.523551 C137.400308,120.572519 132.528768,126.730713 133.036282,133.662671 L133.036282,133.662671 C133.540816,140.595626 139.254572,145.970086 146.151202,146 L146.151202,146 L190.587989,146 C198.548313,146 205,139.496803 205,131.474996 L205,131.474996 C205,123.45319 198.548313,116.948995 190.587989,116.948995 L190.587989,116.948995 C190.012938,116.949992 189.437888,116.984892 188.867804,117.05469 L188.867804,117.05469 C187.316459,111.965404 182.658453,108.48746 177.37673,108.477489 L177.37673,108.477489 C176.061762,108.475495 174.756725,108.694861 173.514259,109.126612 L173.514259,109.126612 C170.921071,103.476947 165.334442,100.000997 159.358488,100 L159.358488,100 C158.244142,100 157.117878,100.120651 155.9936,100.370928" id="Fill-6" fill="url(#linearGradient-1)"></path>
                <path d="M203.105217,172.451308 C194.357962,174.387049 188.132268,182.170859 188.139242,191.160149 L188.139242,191.160149 C188.139242,192.714321 188.332518,194.262516 188.711101,195.766874 L188.711101,195.766874 C180.378295,197.044085 174.424583,204.540971 175.044263,212.980324 L175.044263,212.980324 C175.661951,221.420672 182.64481,227.962142 191.074254,228 L191.074254,228 L245.384942,228 C255.112527,228 263,220.08269 263,210.316314 L263,210.316314 C263,200.550934 255.112527,192.633624 245.384942,192.633624 L245.384942,192.633624 C244.682571,192.63462 243.980201,192.67746 243.281815,192.762142 L243.281815,192.762142 C241.385912,186.566376 235.693223,182.33325 229.238387,182.320299 L229.238387,182.320299 C227.631403,182.318306 226.036374,182.586301 224.518057,183.110336 L224.518057,183.110336 C221.348921,176.23213 214.519487,172.000996 207.216825,172 L207.216825,172 C205.854923,172 204.478077,172.147447 203.105217,172.451308" id="Fill-9" fill="url(#linearGradient-2)"></path>
                <path d="M174,58.0948805 L174,62.6007324 C174,63.1530171 174.447715,63.6007324 175,63.6007324 C175.263692,63.6007324 175.516711,63.4965801 175.703988,63.3109442 L178.207239,60.8296294 C178.599478,60.4408275 178.602265,59.8076686 178.213463,59.4154295 C178.187705,59.3894441 178.160541,59.3648918 178.132092,59.3418836 L175.628841,57.3173464 C175.199421,56.9700472 174.569765,57.0366194 174.222466,57.4660396 C174.078526,57.6440147 174,57.8659836 174,58.0948805 Z" id="-g-Path-24" fill="#4F74FF"></path>
                <path d="M120,126.09488 L120,130.600732 C120,131.153017 120.447715,131.600732 121,131.600732 C121.263692,131.600732 121.516711,131.49658 121.703988,131.310944 L124.207239,128.829629 C124.599478,128.440827 124.602265,127.807669 124.213463,127.41543 C124.187705,127.389444 124.160541,127.364892 124.132092,127.341884 L121.628841,125.317346 C121.199421,124.970047 120.569765,125.036619 120.222466,125.46604 C120.078526,125.644015 120,125.865984 120,126.09488 Z" id="-g-Path-24-Copy" fill="#4F74FF"></path>
                <path d="M167,199.09488 L167,203.600732 C167,204.153017 167.447715,204.600732 168,204.600732 C168.263692,204.600732 168.516711,204.49658 168.703988,204.310944 L171.207239,201.829629 C171.599478,201.440827 171.602265,200.807669 171.213463,200.41543 C171.187705,200.389444 171.160541,200.364892 171.132092,200.341884 L168.628841,198.317346 C168.199421,197.970047 167.569765,198.036619 167.222466,198.46604 C167.078526,198.644015 167,198.865984 167,199.09488 Z" id="-g-Path-24-Copy-2" fill="#4F74FF"></path>
            </g>
        </g>
    </g>
</svg>