<svg xmlns="http://www.w3.org/2000/svg" xmlns:xlink="http://www.w3.org/1999/xlink" width="349.274" height="403.306" viewBox="0 0 349.274 403.306"><defs><linearGradient id="a" x1="-0.038" y1="-0.02" x2="0.555" y2="0.553" gradientUnits="objectBoundingBox"><stop offset="0" stop-color="#fff"/><stop offset="1" stop-color="#b3d1ea"/></linearGradient><linearGradient id="b" x1="-0.025" y1="0.015" x2="1.595" y2="1.511" gradientUnits="objectBoundingBox"><stop offset="0" stop-color="#b3d1ea"/><stop offset="1" stop-color="#428ccb"/></linearGradient><linearGradient id="c" x1="-0.362" y1="-0.044" x2="1.873" y2="1.365" gradientUnits="objectBoundingBox"><stop offset="0" stop-color="#428ccb"/><stop offset="1" stop-color="#214666"/></linearGradient><linearGradient id="d" x1="-1.067" y1="-0.098" x2="0.553" y2="0.52" xlink:href="#c"/></defs><g transform="translate(-122.988 -8616.14)"><path d="M466.8,8915.469V8720.117l-170.327-97.676-168.034,97.676v195.352l168.032,97.676Z" opacity="0.4" fill="url(#a)" style="isolation:isolate"/><path d="M385.766,8889.937l-80.451-47.015v-163.83l80.451,47.019Z" fill="url(#b)"/><path d="M339.973,8917.993l-80.461-47.017V8707.147l80.461,47.015Z" fill="url(#c)"/><path d="M294.168,8943.243l-80.461-47.016V8732.4l80.461,47.016Z" fill="url(#d)"/><path d="M296.46,9019.445,122.988,8918.609V8716.976L296.462,8616.14l175.8,100.817V8918.63ZM133.9,8912.33,296.5,9006.845l164.852-94.536V8723.279L296.5,8628.742l-162.6,94.516Z" fill="#fff"/><path d="M469.607,8721.607" fill="none" stroke="#fff" stroke-miterlimit="10" stroke-width="5.07"/><path d="M296.411,8824.456,127.8,8725.685l5.516-9.419,163.228,95.618,170.4-95.042,5.317,9.532Z" fill="#fff"/><rect width="10.915" height="197.946" transform="translate(291.02 8815.801)" fill="#fff"/></g></svg>