<svg width="641" height="139" viewBox="0 0 641 139" xmlns="http://www.w3.org/2000/svg"><title>how it works</title><defs><linearGradient x1="50%" y1="0%" x2="50%" y2="99.845%" id="a"><stop stop-color="#4387FD" offset="0%"/><stop stop-color="#4683EA" offset="100%"/></linearGradient></defs><g fill="none" fill-rule="evenodd"><text font-family="Roboto-Regular, Roboto" font-size="12" fill="#8FA3AD" transform="translate(-16)"><tspan x="289" y="135">Responds to events</tspan></text><path d="M269.688 119h109.567" stroke="#CED7DB"/><path d="M78.5 29.5h188" stroke="#AFBDC4" stroke-width="5" stroke-linecap="square" stroke-dasharray="1"/><path fill="#AFBDC4" d="M277 29.605L264 18v23z"/><path d="M349.5 42.5h188" stroke="#AFBDC4" stroke-width="5" stroke-linecap="square" stroke-dasharray="1,11"/><path fill="#AFBDC4" d="M545 42.605L532 31v23z"/><path d="M289.5 62.5h-188" stroke="#AFBDC4" stroke-width="5" stroke-linecap="square" stroke-dasharray="1,11"/><path fill="#AFBDC4" d="M91 62.605L104 51v23z"/><g transform="translate(4 3)"><circle fill="#5C6BC0" cx="42" cy="42" r="42"/><path d="M55.036 54H31.357C26.733 54 23 50.278 23 45.667c0-4.611 3.733-8.334 8.357-8.334l.39.028C32.973 32.556 37.291 29 42.5 29c6.156 0 11.143 4.972 11.143 11.111h1.393c3.844 0 6.964 3.111 6.964 6.945C62 50.889 58.88 54 55.036 54z" fill="#FFF" fill-rule="nonzero"/></g><text font-family="Roboto-Regular, Roboto" font-size="14" fill="#8FA3AD" transform="translate(-16)"><tspan x="15.912" y="110">Cloud Services</tspan></text><text font-family="Roboto-Regular, Roboto" font-size="14" fill="#8FA3AD" transform="translate(-16)"><tspan x="155.602" y="19">Emit events</tspan></text><text font-family="Roboto-Regular, Roboto" font-size="14" fill="#8FA3AD" transform="translate(-16)"><tspan x="160.438" y="81">Writes back</tspan></text><text font-family="Roboto-Regular, Roboto" font-size="14" fill="#8FA3AD" transform="translate(-16)"><tspan x="393.55" y="28">Invokes other services</tspan></text><text font-family="Roboto-Regular, Roboto" font-size="14" fill="#8FA3AD" transform="translate(-16)"><tspan x="581.74" y="110">Other APIs</tspan></text><g transform="translate(280 3)" fill-rule="nonzero"><path d="M19.54 76.912L1.084 44.588a8.254 8.254 0 0 1 0-8.175L19.541 4.088A8.07 8.07 0 0 1 26.543 0h36.914a8.07 8.07 0 0 1 7.002 4.088l18.458 32.324a8.254 8.254 0 0 1 0 8.175L70.459 76.912A8.07 8.07 0 0 1 63.457 81H26.543a8.07 8.07 0 0 1-7.002-4.088z" fill="url(#a)"/><path d="M66.019 29.782l-2.668 2.675.584 16.854-2.46 3.578-1.429-1.43h1.31v-5.865l-6.291-6.307-4.524 2.267.13.505L34.65 26l-7.713 3.9L26 37.8l2.668 14.458 3.866 3.797-1.656 2.688L53.08 81h10.227a8.191 8.191 0 0 0 7.097-4.108L86 49.812l-19.981-20.03z" fill="#000" opacity=".07"/><path fill="#FFF" d="M30.334 59L34 55.169l-5.494-5.741V31.572L34 25.832 30.334 22 23 29.663v21.674z"/><circle fill="#FFF" cx="37" cy="41" r="3"/><circle fill="#FFF" cx="45" cy="41" r="3"/><circle fill="#FFF" cx="54" cy="41" r="3"/><path fill="#FFF" d="M58.666 22L55 25.831l5.494 5.741v17.856L55 55.168 58.666 59 66 51.337V29.663z"/></g><text font-family="Roboto-Regular, Roboto" font-size="14" fill="#8FA3AD" transform="translate(-16)"><tspan x="290.51" y="110">Cloud Functions</tspan></text><g transform="translate(557)"><circle fill="#5C6BC0" cx="42" cy="42" r="42"/><path d="M55.6 28H28.4c-1.87 0-3.383 1.55-3.383 3.446L25 52.122c0 1.895 1.53 3.446 3.4 3.446h27.2c1.87 0 3.4-1.551 3.4-3.446V31.446C59 29.55 57.47 28 55.6 28zm-8.546 22.973H27.757v-6.432h19.297v6.432zm0-8.27H27.757V36.27h19.297v6.433zm7.351 9.189h-6.432V36.27h6.432v15.622z" fill="#FFF" fill-rule="nonzero"/></g></g></svg>