<svg xmlns="http://www.w3.org/2000/svg" width="348.784" height="380.326" viewBox="0 0 348.784 380.326"><defs><style>.a{fill:#eff2f4;}.b{fill:#428ccb;}.c{fill:#b3d1ea;}.d{fill:none;stroke:#231f20;stroke-linecap:round;stroke-linejoin:round;}.e{fill:#326de6;}.f{fill:#fff;}</style></defs><g transform="translate(-1097.544 -1094.568)"><g transform="translate(1364.937 1328.722)"><path class="a" d="M1234.236,1178.631l-40.7,23.5v46.029l40.7,23.5,40.7-23.5v-46.029Z" transform="translate(-1193.54 -1178.631)"/><path class="b" d="M1208.15,1256.59v-46.028l40.7-23.5v46.028Z" transform="translate(-1167.454 -1163.57)"/><path class="c" d="M1274.932,1202.127l-40.7,23.5-40.7-23.5,40.7-23.5Z" transform="translate(-1193.54 -1178.631)"/></g><g transform="translate(1231.249 1381.874)"><path class="a" d="M1186.241,1197.713l-40.7,23.5v46.029l40.7,23.5,40.7-23.5v-46.029Z" transform="translate(-1145.545 -1197.713)"/><path class="b" d="M1160.155,1275.672v-46.029l40.7-23.5v46.028Z" transform="translate(-1119.459 -1182.652)"/><path class="c" d="M1226.937,1221.209l-40.7,23.5-40.7-23.5,40.7-23.5Z" transform="translate(-1145.545 -1197.713)"/></g><g transform="translate(1097.544 1328.722)"><path class="a" d="M1138.24,1178.631l-40.7,23.5v46.029l40.7,23.5,40.7-23.5v-46.029Z" transform="translate(-1097.544 -1178.631)"/><path class="b" d="M1112.154,1256.59v-46.028l40.7-23.5v46.028Z" transform="translate(-1071.458 -1163.57)"/><path class="c" d="M1178.936,1202.127l-40.7,23.5-40.7-23.5,40.7-23.5Z" transform="translate(-1097.544 -1178.631)"/></g><path class="a" d="M1250.253,1286.746a6.979,6.979,0,0,1-6.978-6.978v-71.082a42.28,42.28,0,0,0-17.637-34.309l-38.153-27.309a6.977,6.977,0,1,1,8.125-11.345l38.153,27.309a56.259,56.259,0,0,1,23.47,45.654v71.082A6.98,6.98,0,0,1,1250.253,1286.746Z" transform="translate(155.379 71.151)"/><path class="a" d="M1164.627,1338.882a6.979,6.979,0,0,1-6.978-6.978V1140.838a6.978,6.978,0,1,1,13.955,0V1331.9A6.978,6.978,0,0,1,1164.627,1338.882Z" transform="translate(107.316 70.15)"/><path class="d" d="M1112.161,1194.856" transform="translate(26.097 179.06)"/><path class="a" d="M1116.633,1286.459a6.979,6.979,0,0,1-6.978-6.978V1208.4a56.26,56.26,0,0,1,23.47-45.654l38.155-27.3a6.976,6.976,0,0,1,8.119,11.345l-38.155,27.3a42.29,42.29,0,0,0-17.635,34.306v71.085A6.978,6.978,0,0,1,1116.633,1286.459Z" transform="translate(21.623 70.655)"/><g transform="translate(1172.231 1094.568)"><path class="e" d="M1158.489,1139.53l6.146,2.949,6.147-2.947,1.51-6.584-4.239-5.295h-6.831l-4.24,5.293Z" transform="translate(-1066.109 -1035.499)"/><path class="e" d="M1168.5,1134.219l-23.821,4.039a44.3,44.3,0,0,0,17.752,22.2l9.184-22.208a3.736,3.736,0,0,0-3.114-4.031Z" transform="translate(-1088.07 -1023.773)"/><path class="e" d="M1167.854,1141.962a3.741,3.741,0,0,0,.292-4.242l-17.671-15.8a43.791,43.791,0,0,0-6.73,23.378c0,1.379.067,2.741.192,4.089l23.105-6.671A3.688,3.688,0,0,0,1167.854,1141.962Z" transform="translate(-1089.74 -1045.737)"/><path class="e" d="M1169.017,1140.174a3.745,3.745,0,0,0,3.507-2.437l1.306-23.136a43.931,43.931,0,0,0-25.128,11.758l19.3,13.674A3.69,3.69,0,0,0,1169.017,1140.174Z" transform="translate(-1080.889 -1058.801)"/><path class="e" d="M1166.851,1138.378a3.738,3.738,0,0,0,1.563,3.936l22.206,6.407q.159-1.847.161-3.73a43.792,43.792,0,0,0-6.434-22.9l-17.131,15.331A3.709,3.709,0,0,0,1166.851,1138.378Z" transform="translate(-1048.654 -1045.431)"/><path class="e" d="M1163.563,1138.611a3.74,3.74,0,0,0,4.019,1.242l18.679-13.245a43.945,43.945,0,0,0-24.515-11.963l1.315,23.136A3.691,3.691,0,0,0,1163.563,1138.611Z" transform="translate(-1057.6 -1058.722)"/><path class="e" d="M1170.413,1137.8a3.748,3.748,0,0,0-4.047.523l-11.707,21.167a44.05,44.05,0,0,0,28.178-.287l-11.49-20.763A3.758,3.758,0,0,0,1170.413,1137.8Z" transform="translate(-1070.257 -1018.042)"/><path class="e" d="M1168.235,1134.185a3.744,3.744,0,0,0-3.134,3.9l9.072,21.922a44.287,44.287,0,0,0,17.053-21.924Z" transform="translate(-1051.62 -1023.834)"/><path class="e" d="M1321.185,1212.423l-17.54-76.182a10.039,10.039,0,0,0-5.448-6.8l-70.99-33.9a10.015,10.015,0,0,0-8.641,0l-70.982,33.913a10.023,10.023,0,0,0-5.449,6.8l-17.523,76.188a10.02,10.02,0,0,0,1.958,8.526l49.13,61.091a10.024,10.024,0,0,0,7.81,3.741l78.79-.009a10.018,10.018,0,0,0,7.81-3.744l49.119-61.1A10.033,10.033,0,0,0,1321.185,1212.423Zm-69.166,30.66-.337.161-.033.086a2.922,2.922,0,0,0-.212,2.189,39.461,39.461,0,0,0,3.721,6.657l.045.07c.264.4.535.763.8,1.123a17.442,17.442,0,0,1,1.484,2.27l.081.156a5.458,5.458,0,0,1,.538.886,4.666,4.666,0,0,1-1.85,6.306,4.034,4.034,0,0,1-1.755.4,4.922,4.922,0,0,1-4.331-2.88,5.2,5.2,0,0,1-.357-.969l-.075-.164a17.468,17.468,0,0,1-.85-2.577c-.117-.426-.237-.869-.382-1.323l-.025-.075a39.5,39.5,0,0,0-2.888-7.064,2.913,2.913,0,0,0-1.841-1.2l-.084-.027-.34.164-.981-1.774a55.1,55.1,0,0,1-39.01.32l-.841,1.521-.337-.161-.089.025a2.922,2.922,0,0,0-1.841,1.2,39.569,39.569,0,0,0-2.886,7.058l-.025.081c-.145.454-.265.9-.382,1.323a17.382,17.382,0,0,1-.849,2.574l-.072.158a5.36,5.36,0,0,1-.357.978,5.122,5.122,0,0,1-2.652,2.546,4.413,4.413,0,0,1-1.677.337,4.066,4.066,0,0,1-1.758-.4,4.667,4.667,0,0,1-1.852-6.306,5.307,5.307,0,0,1,.535-.883l.084-.162a17.215,17.215,0,0,1,1.485-2.27c.262-.359.532-.727.8-1.122l.044-.07a39.681,39.681,0,0,0,3.721-6.66,2.912,2.912,0,0,0-.211-2.187l-.033-.083-.34-.162.652-1.577a55.35,55.35,0,0,1-24.5-30.657l-1.6.273-.084-.367-.072-.05a2.935,2.935,0,0,0-2.089-.694,39.3,39.3,0,0,0-7.315,2.145l-.081.031c-.446.17-.866.351-1.273.527a17.561,17.561,0,0,1-2.543.941l-.17.042a5.259,5.259,0,0,1-.986.329,5.361,5.361,0,0,1-1.2.137,4.526,4.526,0,0,1-4.54-3.346,4.175,4.175,0,0,1,.7-3.359,5.117,5.117,0,0,1,3.069-2.019,5.486,5.486,0,0,1,1.025-.131l.178-.036a17.386,17.386,0,0,1,2.7-.256c.443-.019.9-.036,1.376-.078l.078-.009a39.33,39.33,0,0,0,7.532-1.242,2.908,2.908,0,0,0,1.576-1.529l.045-.075-.084-.367.234-.067,1.362-.393a55.037,55.037,0,0,1,8.978-38.019l-1.541-1.376.234-.292-.006-.092a2.92,2.92,0,0,0-.76-2.064,39.461,39.461,0,0,0-6.24-4.385l-.073-.042c-.41-.242-.813-.457-1.206-.666a17.776,17.776,0,0,1-2.32-1.4l-.145-.108a5.546,5.546,0,0,1-.866-.563,4.663,4.663,0,0,1-1.067-6.485,4.167,4.167,0,0,1,3.067-1.546,5.108,5.108,0,0,1,3.493,1.142,5.357,5.357,0,0,1,.741.719l.139.117a17.525,17.525,0,0,1,1.883,1.95c.29.334.591.682.919,1.028l.058.061a39.424,39.424,0,0,0,5.663,5.108,2.922,2.922,0,0,0,2.178.282l.089-.014.234-.3,1.78,1.262a54.957,54.957,0,0,1,34.9-16.434l.145-2.529h.376l.064-.061a2.909,2.909,0,0,0,1.139-1.88,39.442,39.442,0,0,0-.462-7.615l-.008-.081c-.07-.471-.153-.919-.234-1.357a17.5,17.5,0,0,1-.351-2.688l0-.175a5.3,5.3,0,0,1-.1-1.033,4.663,4.663,0,0,1,4.407-4.877h0a4.177,4.177,0,0,1,3.12,1.434,5.124,5.124,0,0,1,1.284,3.443,5.211,5.211,0,0,1-.1,1.025l0,.184a17.533,17.533,0,0,1-.351,2.691c-.081.435-.164.886-.234,1.357l-.008.078a39.475,39.475,0,0,0-.462,7.618,2.907,2.907,0,0,0,1.139,1.878l.064.061h.376l.014.242.137,2.373a54.987,54.987,0,0,1,34.275,16.685l2.368-1.679.234.3.089.011a2.918,2.918,0,0,0,2.181-.281,39.382,39.382,0,0,0,5.663-5.109l.058-.058c.326-.345.627-.694.917-1.028a17.291,17.291,0,0,1,1.883-1.952l.134-.112a5.562,5.562,0,0,1,.744-.724,4.429,4.429,0,1,1,5.5,6.889,5.5,5.5,0,0,1-.858.557c-.053.042-.106.081-.153.114a17.325,17.325,0,0,1-2.32,1.4c-.393.206-.8.423-1.206.666l-.07.042a39.3,39.3,0,0,0-6.242,4.387,2.917,2.917,0,0,0-.76,2.061l-.006.089.234.293-2.15,1.924a54.764,54.764,0,0,1,9.142,30.356,55.438,55.438,0,0,1-.423,6.838l2.5.721-.086.365.048.078a2.917,2.917,0,0,0,1.579,1.53,39.379,39.379,0,0,0,7.518,1.242l.089.009c.473.039.933.059,1.376.075a17.758,17.758,0,0,1,2.7.256l.173.036a5.485,5.485,0,0,1,1.031.131,5.122,5.122,0,0,1,3.069,2.017,4.182,4.182,0,0,1,.7,3.362,4.524,4.524,0,0,1-4.54,3.345,5.329,5.329,0,0,1-2.173-.46l-.178-.045a17.875,17.875,0,0,1-2.543-.941c-.407-.176-.828-.359-1.273-.529l-.075-.028a39.362,39.362,0,0,0-7.323-2.145,2.918,2.918,0,0,0-2.084.691l-.075.053-.083.365-2.468-.418a55.369,55.369,0,0,1-23.785,30.42Z" transform="translate(-1124.357 -1094.568)"/><path class="f" d="M1282,1193.1a5.122,5.122,0,0,0-3.069-2.017,5.485,5.485,0,0,0-1.031-.131l-.173-.036a17.758,17.758,0,0,0-2.7-.256c-.443-.017-.9-.036-1.376-.075l-.089-.009a39.379,39.379,0,0,1-7.518-1.242,2.917,2.917,0,0,1-1.579-1.53l-.048-.078.086-.365-2.5-.721a55.438,55.438,0,0,0,.423-6.838,54.764,54.764,0,0,0-9.142-30.356l2.15-1.924-.234-.293.006-.089a2.917,2.917,0,0,1,.76-2.061,39.3,39.3,0,0,1,6.242-4.387l.07-.042c.409-.242.813-.46,1.206-.666a17.325,17.325,0,0,0,2.32-1.4c.047-.033.1-.073.153-.114a5.5,5.5,0,0,0,.858-.557,4.429,4.429,0,1,0-5.5-6.889,5.562,5.562,0,0,0-.744.724l-.134.112a17.291,17.291,0,0,0-1.883,1.952c-.29.334-.591.682-.917,1.028l-.058.058a39.382,39.382,0,0,1-5.663,5.109,2.918,2.918,0,0,1-2.181.281l-.089-.011-.234-.3-2.368,1.679a54.987,54.987,0,0,0-34.275-16.685l-.137-2.373-.014-.242h-.376l-.064-.061a2.907,2.907,0,0,1-1.139-1.878,39.475,39.475,0,0,1,.462-7.618l.008-.078c.07-.47.154-.922.234-1.357a17.533,17.533,0,0,0,.351-2.691l0-.184a5.211,5.211,0,0,0,.1-1.025,5.124,5.124,0,0,0-1.284-3.443,4.177,4.177,0,0,0-3.12-1.434h0a4.663,4.663,0,0,0-4.407,4.877,5.3,5.3,0,0,0,.1,1.033l0,.175a17.5,17.5,0,0,0,.351,2.688c.081.437.164.886.234,1.357l.008.081a39.442,39.442,0,0,1,.462,7.615,2.909,2.909,0,0,1-1.139,1.88l-.064.061h-.376l-.145,2.529a54.957,54.957,0,0,0-34.9,16.434l-1.78-1.262-.234.3-.089.014a2.922,2.922,0,0,1-2.178-.282,39.424,39.424,0,0,1-5.663-5.108l-.058-.061c-.329-.345-.629-.694-.919-1.028a17.525,17.525,0,0,0-1.883-1.95l-.139-.117a5.357,5.357,0,0,0-.741-.719,5.108,5.108,0,0,0-3.493-1.142,4.167,4.167,0,0,0-3.067,1.546,4.663,4.663,0,0,0,1.067,6.485,5.546,5.546,0,0,0,.866.563l.145.108a17.776,17.776,0,0,0,2.32,1.4c.393.209.8.423,1.206.666l.073.042a39.461,39.461,0,0,1,6.24,4.385,2.92,2.92,0,0,1,.76,2.064l.006.092-.234.292,1.541,1.376a55.037,55.037,0,0,0-8.978,38.019l-1.362.393-.234.067.084.367-.045.075a2.908,2.908,0,0,1-1.576,1.529,39.33,39.33,0,0,1-7.532,1.242l-.078.009c-.476.042-.933.059-1.376.078a17.386,17.386,0,0,0-2.7.256l-.178.036a5.486,5.486,0,0,0-1.025.131,5.117,5.117,0,0,0-3.069,2.019,4.175,4.175,0,0,0-.7,3.359,4.526,4.526,0,0,0,4.54,3.346,5.361,5.361,0,0,0,1.2-.137,5.259,5.259,0,0,0,.986-.329l.17-.042a17.561,17.561,0,0,0,2.543-.941c.406-.176.827-.357,1.273-.527l.081-.031a39.3,39.3,0,0,1,7.315-2.145,2.935,2.935,0,0,1,2.089.694l.072.05.084.367,1.6-.273a55.35,55.35,0,0,0,24.5,30.657l-.652,1.577.34.162.033.083a2.912,2.912,0,0,1,.211,2.187,39.681,39.681,0,0,1-3.721,6.66l-.044.07c-.265.4-.535.763-.8,1.122a17.215,17.215,0,0,0-1.485,2.27l-.084.162a5.307,5.307,0,0,0-.535.883,4.667,4.667,0,0,0,1.852,6.306,4.066,4.066,0,0,0,1.758.4,4.413,4.413,0,0,0,1.677-.337,5.122,5.122,0,0,0,2.652-2.546,5.36,5.36,0,0,0,.357-.978l.072-.158a17.382,17.382,0,0,0,.849-2.574c.117-.426.237-.869.382-1.323l.025-.081a39.569,39.569,0,0,1,2.886-7.058,2.922,2.922,0,0,1,1.841-1.2l.089-.025.337.161.841-1.521a55.1,55.1,0,0,0,39.01-.32l.981,1.774.34-.164.084.027a2.913,2.913,0,0,1,1.841,1.2,39.5,39.5,0,0,1,2.888,7.064l.025.075c.145.454.264.9.382,1.323a17.468,17.468,0,0,0,.85,2.577l.075.164a5.2,5.2,0,0,0,.357.969,4.922,4.922,0,0,0,4.331,2.88,4.034,4.034,0,0,0,1.755-.4,4.666,4.666,0,0,0,1.85-6.306,5.458,5.458,0,0,0-.538-.886l-.081-.156a17.442,17.442,0,0,0-1.484-2.27c-.262-.359-.532-.727-.8-1.123l-.045-.07a39.461,39.461,0,0,1-3.721-6.657,2.922,2.922,0,0,1,.212-2.189l.033-.086.337-.161-.822-1.986a55.369,55.369,0,0,0,23.785-30.42l2.468.418.083-.365.075-.053a2.918,2.918,0,0,1,2.084-.691,39.362,39.362,0,0,1,7.323,2.145l.075.028c.445.17.866.354,1.273.529a17.875,17.875,0,0,0,2.543.941l.178.045a5.329,5.329,0,0,0,2.173.46,4.524,4.524,0,0,0,4.54-3.345A4.182,4.182,0,0,0,1282,1193.1Zm-81.865-15.412,4.24-5.292h6.833l4.24,5.3-1.51,6.585-6.147,2.947-6.145-2.95Zm51.255,2.114q0,1.884-.161,3.73l-22.206-6.407a3.729,3.729,0,0,1-1.2-4.894l17.131-15.331A43.792,43.792,0,0,1,1251.395,1179.8Zm-13.465-31.674-18.679,13.245a3.74,3.74,0,0,1-4.019-1.242,3.691,3.691,0,0,1-.5-.83l-1.315-23.136A43.945,43.945,0,0,1,1237.93,1148.13Zm-35.721-12.086-1.306,23.136a3.745,3.745,0,0,1-3.507,2.437,3.69,3.69,0,0,1-1.017-.142l-19.3-13.674A43.931,43.931,0,0,1,1202.209,1136.044Zm-38.935,43.76a43.791,43.791,0,0,1,6.73-23.378l17.671,15.8a3.741,3.741,0,0,1-.292,4.242,3.688,3.688,0,0,1-.811.752l-23.105,6.671C1163.341,1182.545,1163.274,1181.183,1163.274,1179.8Zm2.6,14.924,23.821-4.039a3.736,3.736,0,0,1,3.114,4.031l-9.184,22.208A44.3,44.3,0,0,1,1165.878,1194.728Zm41.456,29.136a43.913,43.913,0,0,1-13.666-2.173l11.707-21.167a3.735,3.735,0,0,1,4.981.117l11.49,20.763A43.862,43.862,0,0,1,1207.334,1223.865Zm24.487-7.451-9.072-21.922a3.744,3.744,0,0,1,3.134-3.9l22.991,3.894A44.287,44.287,0,0,1,1231.822,1216.413Z" transform="translate(-1109.268 -1080.244)"/></g></g></svg>